<mxfile host="65bd71144e">
    <diagram id="C5RBs43oDa-KdzZeNtuy" name="Page-1">
        <mxGraphModel dx="788" dy="764" grid="1" gridSize="10" guides="1" tooltips="1" connect="1" arrows="1" fold="1" page="1" pageScale="1" pageWidth="827" pageHeight="1169" math="0" shadow="0">
            <root>
                <mxCell id="WIyWlLk6GJQsqaUBKTNV-0"/>
                <mxCell id="WIyWlLk6GJQsqaUBKTNV-1" parent="WIyWlLk6GJQsqaUBKTNV-0"/>
                <mxCell id="ZOqMEY8nHoL99eGyLQIH-0" value="Ong" style="swimlane;fontStyle=1;align=center;verticalAlign=top;childLayout=stackLayout;horizontal=1;startSize=26;horizontalStack=0;resizeParent=1;resizeParentMax=0;resizeLast=0;collapsible=1;marginBottom=0;whiteSpace=wrap;html=1;" parent="WIyWlLk6GJQsqaUBKTNV-1" vertex="1">
                    <mxGeometry x="365" y="330" width="200" height="170" as="geometry"/>
                </mxCell>
                <mxCell id="ZOqMEY8nHoL99eGyLQIH-1" value="- nome: str" style="text;strokeColor=none;fillColor=none;align=left;verticalAlign=top;spacingLeft=4;spacingRight=4;overflow=hidden;rotatable=0;points=[[0,0.5],[1,0.5]];portConstraint=eastwest;whiteSpace=wrap;html=1;" parent="ZOqMEY8nHoL99eGyLQIH-0" vertex="1">
                    <mxGeometry y="26" width="200" height="34" as="geometry"/>
                </mxCell>
                <mxCell id="ZOqMEY8nHoL99eGyLQIH-2" value="" style="line;strokeWidth=1;fillColor=none;align=left;verticalAlign=middle;spacingTop=-1;spacingLeft=3;spacingRight=3;rotatable=0;labelPosition=right;points=[];portConstraint=eastwest;strokeColor=inherit;" parent="ZOqMEY8nHoL99eGyLQIH-0" vertex="1">
                    <mxGeometry y="60" width="200" height="8" as="geometry"/>
                </mxCell>
                <mxCell id="ZOqMEY8nHoL99eGyLQIH-3" value="&lt;span style=&quot;&quot;&gt;+ &amp;lt;&amp;lt;create&amp;gt;&amp;gt; __init__(nome)&lt;/span&gt;&lt;br&gt;+ cadastrar_animal(): Animal&amp;nbsp;&lt;br&gt;+ cadastrar_pessoa(): Pessoa&amp;nbsp;&lt;br&gt;+ cadastrar_doacao(): Doacao&lt;br&gt;+ cadastrar_adocao(): Adocao&lt;br&gt;+ cadastrar_animal(): Animal&amp;nbsp;&amp;nbsp;" style="text;strokeColor=none;fillColor=none;align=left;verticalAlign=top;spacingLeft=4;spacingRight=4;overflow=hidden;rotatable=0;points=[[0,0.5],[1,0.5]];portConstraint=eastwest;whiteSpace=wrap;html=1;" parent="ZOqMEY8nHoL99eGyLQIH-0" vertex="1">
                    <mxGeometry y="68" width="200" height="102" as="geometry"/>
                </mxCell>
                <mxCell id="ZOqMEY8nHoL99eGyLQIH-4" value="Pessoa" style="swimlane;fontStyle=1;align=center;verticalAlign=top;childLayout=stackLayout;horizontal=1;startSize=26;horizontalStack=0;resizeParent=1;resizeParentMax=0;resizeLast=0;collapsible=1;marginBottom=0;whiteSpace=wrap;html=1;" parent="WIyWlLk6GJQsqaUBKTNV-1" vertex="1">
                    <mxGeometry x="75" y="206" width="160" height="148" as="geometry"/>
                </mxCell>
                <mxCell id="ZOqMEY8nHoL99eGyLQIH-5" value="- cpf: str&lt;div&gt;- nome: str&lt;br&gt;&lt;/div&gt;&lt;div&gt;- data_nasc: Date&lt;br&gt;&lt;/div&gt;&lt;div&gt;- endereco: str&lt;/div&gt;" style="text;strokeColor=none;fillColor=none;align=left;verticalAlign=top;spacingLeft=4;spacingRight=4;overflow=hidden;rotatable=0;points=[[0,0.5],[1,0.5]];portConstraint=eastwest;whiteSpace=wrap;html=1;" parent="ZOqMEY8nHoL99eGyLQIH-4" vertex="1">
                    <mxGeometry y="26" width="160" height="64" as="geometry"/>
                </mxCell>
                <mxCell id="ZOqMEY8nHoL99eGyLQIH-6" value="" style="line;strokeWidth=1;fillColor=none;align=left;verticalAlign=middle;spacingTop=-1;spacingLeft=3;spacingRight=3;rotatable=0;labelPosition=right;points=[];portConstraint=eastwest;strokeColor=inherit;" parent="ZOqMEY8nHoL99eGyLQIH-4" vertex="1">
                    <mxGeometry y="90" width="160" height="8" as="geometry"/>
                </mxCell>
                <mxCell id="ZOqMEY8nHoL99eGyLQIH-7" value="+ emprestar(Livro): void" style="text;strokeColor=none;fillColor=none;align=left;verticalAlign=top;spacingLeft=4;spacingRight=4;overflow=hidden;rotatable=0;points=[[0,0.5],[1,0.5]];portConstraint=eastwest;whiteSpace=wrap;html=1;" parent="ZOqMEY8nHoL99eGyLQIH-4" vertex="1">
                    <mxGeometry y="98" width="160" height="50" as="geometry"/>
                </mxCell>
                <mxCell id="ZOqMEY8nHoL99eGyLQIH-8" value="Doacao" style="swimlane;fontStyle=1;align=center;verticalAlign=top;childLayout=stackLayout;horizontal=1;startSize=26;horizontalStack=0;resizeParent=1;resizeParentMax=0;resizeLast=0;collapsible=1;marginBottom=0;whiteSpace=wrap;html=1;" parent="WIyWlLk6GJQsqaUBKTNV-1" vertex="1">
                    <mxGeometry x="390" y="26" width="160" height="180" as="geometry"/>
                </mxCell>
                <mxCell id="ZOqMEY8nHoL99eGyLQIH-9" value="&lt;span style=&quot;background-color: initial;&quot;&gt;- data: Date&lt;/span&gt;&lt;br&gt;&lt;div&gt;&lt;div&gt;- animal: Animal&lt;br&gt;&lt;/div&gt;&lt;/div&gt;&lt;div&gt;- doador: Doador&lt;/div&gt;&lt;div&gt;- motivo: str&lt;/div&gt;" style="text;strokeColor=none;fillColor=none;align=left;verticalAlign=top;spacingLeft=4;spacingRight=4;overflow=hidden;rotatable=0;points=[[0,0.5],[1,0.5]];portConstraint=eastwest;whiteSpace=wrap;html=1;" parent="ZOqMEY8nHoL99eGyLQIH-8" vertex="1">
                    <mxGeometry y="26" width="160" height="74" as="geometry"/>
                </mxCell>
                <mxCell id="ZOqMEY8nHoL99eGyLQIH-10" value="" style="line;strokeWidth=1;fillColor=none;align=left;verticalAlign=middle;spacingTop=-1;spacingLeft=3;spacingRight=3;rotatable=0;labelPosition=right;points=[];portConstraint=eastwest;strokeColor=inherit;" parent="ZOqMEY8nHoL99eGyLQIH-8" vertex="1">
                    <mxGeometry y="100" width="160" height="10" as="geometry"/>
                </mxCell>
                <mxCell id="ZOqMEY8nHoL99eGyLQIH-11" value="+" style="text;strokeColor=none;fillColor=none;align=left;verticalAlign=top;spacingLeft=4;spacingRight=4;overflow=hidden;rotatable=0;points=[[0,0.5],[1,0.5]];portConstraint=eastwest;whiteSpace=wrap;html=1;" parent="ZOqMEY8nHoL99eGyLQIH-8" vertex="1">
                    <mxGeometry y="110" width="160" height="70" as="geometry"/>
                </mxCell>
                <mxCell id="ZOqMEY8nHoL99eGyLQIH-12" value="Adocao" style="swimlane;fontStyle=1;align=center;verticalAlign=top;childLayout=stackLayout;horizontal=1;startSize=26;horizontalStack=0;resizeParent=1;resizeParentMax=0;resizeLast=0;collapsible=1;marginBottom=0;whiteSpace=wrap;html=1;" parent="WIyWlLk6GJQsqaUBKTNV-1" vertex="1">
                    <mxGeometry x="380" y="620" width="170" height="140" as="geometry"/>
                </mxCell>
                <mxCell id="ZOqMEY8nHoL99eGyLQIH-13" value="-" style="text;strokeColor=none;fillColor=none;align=left;verticalAlign=top;spacingLeft=4;spacingRight=4;overflow=hidden;rotatable=0;points=[[0,0.5],[1,0.5]];portConstraint=eastwest;whiteSpace=wrap;html=1;" parent="ZOqMEY8nHoL99eGyLQIH-12" vertex="1">
                    <mxGeometry y="26" width="170" height="54" as="geometry"/>
                </mxCell>
                <mxCell id="ZOqMEY8nHoL99eGyLQIH-14" value="" style="line;strokeWidth=1;fillColor=none;align=left;verticalAlign=middle;spacingTop=-1;spacingLeft=3;spacingRight=3;rotatable=0;labelPosition=right;points=[];portConstraint=eastwest;strokeColor=inherit;" parent="ZOqMEY8nHoL99eGyLQIH-12" vertex="1">
                    <mxGeometry y="80" width="170" height="8" as="geometry"/>
                </mxCell>
                <mxCell id="ZOqMEY8nHoL99eGyLQIH-15" value="&lt;div&gt;+&lt;/div&gt;" style="text;strokeColor=none;fillColor=none;align=left;verticalAlign=top;spacingLeft=4;spacingRight=4;overflow=hidden;rotatable=0;points=[[0,0.5],[1,0.5]];portConstraint=eastwest;whiteSpace=wrap;html=1;" parent="ZOqMEY8nHoL99eGyLQIH-12" vertex="1">
                    <mxGeometry y="88" width="170" height="52" as="geometry"/>
                </mxCell>
                <mxCell id="ZOqMEY8nHoL99eGyLQIH-16" value="Animal" style="swimlane;fontStyle=1;align=center;verticalAlign=top;childLayout=stackLayout;horizontal=1;startSize=26;horizontalStack=0;resizeParent=1;resizeParentMax=0;resizeLast=0;collapsible=1;marginBottom=0;whiteSpace=wrap;html=1;" parent="WIyWlLk6GJQsqaUBKTNV-1" vertex="1">
                    <mxGeometry x="730" y="138" width="160" height="130" as="geometry"/>
                </mxCell>
                <mxCell id="ZOqMEY8nHoL99eGyLQIH-17" value="- numero_chip: int&lt;br&gt;- nome: str&lt;br&gt;&lt;div&gt;- raca: str&lt;br&gt;&lt;/div&gt;" style="text;strokeColor=none;fillColor=none;align=left;verticalAlign=top;spacingLeft=4;spacingRight=4;overflow=hidden;rotatable=0;points=[[0,0.5],[1,0.5]];portConstraint=eastwest;whiteSpace=wrap;html=1;" parent="ZOqMEY8nHoL99eGyLQIH-16" vertex="1">
                    <mxGeometry y="26" width="160" height="54" as="geometry"/>
                </mxCell>
                <mxCell id="ZOqMEY8nHoL99eGyLQIH-18" value="" style="line;strokeWidth=1;fillColor=none;align=left;verticalAlign=middle;spacingTop=-1;spacingLeft=3;spacingRight=3;rotatable=0;labelPosition=right;points=[];portConstraint=eastwest;strokeColor=inherit;" parent="ZOqMEY8nHoL99eGyLQIH-16" vertex="1">
                    <mxGeometry y="80" width="160" height="8" as="geometry"/>
                </mxCell>
                <mxCell id="ZOqMEY8nHoL99eGyLQIH-19" value="+ vacinar(): Vacinacao&lt;div&gt;+ descricao(): str&lt;br&gt;&lt;/div&gt;" style="text;strokeColor=none;fillColor=none;align=left;verticalAlign=top;spacingLeft=4;spacingRight=4;overflow=hidden;rotatable=0;points=[[0,0.5],[1,0.5]];portConstraint=eastwest;whiteSpace=wrap;html=1;" parent="ZOqMEY8nHoL99eGyLQIH-16" vertex="1">
                    <mxGeometry y="88" width="160" height="42" as="geometry"/>
                </mxCell>
                <mxCell id="0" value="Gato" style="swimlane;fontStyle=1;align=center;verticalAlign=top;childLayout=stackLayout;horizontal=1;startSize=26;horizontalStack=0;resizeParent=1;resizeParentMax=0;resizeLast=0;collapsible=1;marginBottom=0;" parent="WIyWlLk6GJQsqaUBKTNV-1" vertex="1">
                    <mxGeometry x="667" y="410" width="160" height="86" as="geometry"/>
                </mxCell>
                <mxCell id="1" value="+ field: type" style="text;strokeColor=none;fillColor=none;align=left;verticalAlign=top;spacingLeft=4;spacingRight=4;overflow=hidden;rotatable=0;points=[[0,0.5],[1,0.5]];portConstraint=eastwest;" parent="0" vertex="1">
                    <mxGeometry y="26" width="160" height="26" as="geometry"/>
                </mxCell>
                <mxCell id="2" value="" style="line;strokeWidth=1;fillColor=none;align=left;verticalAlign=middle;spacingTop=-1;spacingLeft=3;spacingRight=3;rotatable=0;labelPosition=right;points=[];portConstraint=eastwest;strokeColor=inherit;" parent="0" vertex="1">
                    <mxGeometry y="52" width="160" height="8" as="geometry"/>
                </mxCell>
                <mxCell id="3" value="+ method(type): type" style="text;strokeColor=none;fillColor=none;align=left;verticalAlign=top;spacingLeft=4;spacingRight=4;overflow=hidden;rotatable=0;points=[[0,0.5],[1,0.5]];portConstraint=eastwest;" parent="0" vertex="1">
                    <mxGeometry y="60" width="160" height="26" as="geometry"/>
                </mxCell>
                <mxCell id="4" value="Cachorro" style="swimlane;fontStyle=1;align=center;verticalAlign=top;childLayout=stackLayout;horizontal=1;startSize=26;horizontalStack=0;resizeParent=1;resizeParentMax=0;resizeLast=0;collapsible=1;marginBottom=0;" parent="WIyWlLk6GJQsqaUBKTNV-1" vertex="1">
                    <mxGeometry x="940" y="44" width="160" height="86" as="geometry"/>
                </mxCell>
                <mxCell id="5" value="- tamanho: str" style="text;strokeColor=none;fillColor=none;align=left;verticalAlign=top;spacingLeft=4;spacingRight=4;overflow=hidden;rotatable=0;points=[[0,0.5],[1,0.5]];portConstraint=eastwest;" parent="4" vertex="1">
                    <mxGeometry y="26" width="160" height="26" as="geometry"/>
                </mxCell>
                <mxCell id="6" value="" style="line;strokeWidth=1;fillColor=none;align=left;verticalAlign=middle;spacingTop=-1;spacingLeft=3;spacingRight=3;rotatable=0;labelPosition=right;points=[];portConstraint=eastwest;strokeColor=inherit;" parent="4" vertex="1">
                    <mxGeometry y="52" width="160" height="8" as="geometry"/>
                </mxCell>
                <mxCell id="7" value="+ method(type): type" style="text;strokeColor=none;fillColor=none;align=left;verticalAlign=top;spacingLeft=4;spacingRight=4;overflow=hidden;rotatable=0;points=[[0,0.5],[1,0.5]];portConstraint=eastwest;" parent="4" vertex="1">
                    <mxGeometry y="60" width="160" height="26" as="geometry"/>
                </mxCell>
                <mxCell id="8" value="Extends" style="endArrow=block;endSize=16;endFill=0;html=1;exitX=0.5;exitY=0;exitDx=0;exitDy=0;entryX=0.125;entryY=1;entryDx=0;entryDy=0;entryPerimeter=0;" parent="WIyWlLk6GJQsqaUBKTNV-1" source="0" target="ZOqMEY8nHoL99eGyLQIH-19" edge="1">
                    <mxGeometry width="160" relative="1" as="geometry">
                        <mxPoint x="1120" y="370" as="sourcePoint"/>
                        <mxPoint x="770" y="280" as="targetPoint"/>
                        <Array as="points"/>
                    </mxGeometry>
                </mxCell>
                <mxCell id="9" value="Extends" style="endArrow=block;endSize=16;endFill=0;html=1;exitX=0;exitY=0.5;exitDx=0;exitDy=0;entryX=0.588;entryY=-0.023;entryDx=0;entryDy=0;entryPerimeter=0;" parent="WIyWlLk6GJQsqaUBKTNV-1" source="5" target="ZOqMEY8nHoL99eGyLQIH-16" edge="1">
                    <mxGeometry width="160" relative="1" as="geometry">
                        <mxPoint x="910" y="70" as="sourcePoint"/>
                        <mxPoint x="850" y="120" as="targetPoint"/>
                        <Array as="points">
                            <mxPoint x="824" y="83"/>
                        </Array>
                    </mxGeometry>
                </mxCell>
                <mxCell id="18" value="Adotante" style="swimlane;fontStyle=1;align=center;verticalAlign=top;childLayout=stackLayout;horizontal=1;startSize=26;horizontalStack=0;resizeParent=1;resizeParentMax=0;resizeLast=0;collapsible=1;marginBottom=0;" parent="WIyWlLk6GJQsqaUBKTNV-1" vertex="1">
                    <mxGeometry x="50" y="476" width="210" height="120" as="geometry"/>
                </mxCell>
                <mxCell id="19" value="- habitacao: Habitacao&#10;- possui_animais: bool" style="text;strokeColor=none;fillColor=none;align=left;verticalAlign=top;spacingLeft=4;spacingRight=4;overflow=hidden;rotatable=0;points=[[0,0.5],[1,0.5]];portConstraint=eastwest;" parent="18" vertex="1">
                    <mxGeometry y="26" width="210" height="44" as="geometry"/>
                </mxCell>
                <mxCell id="20" value="" style="line;strokeWidth=1;fillColor=none;align=left;verticalAlign=middle;spacingTop=-1;spacingLeft=3;spacingRight=3;rotatable=0;labelPosition=right;points=[];portConstraint=eastwest;strokeColor=inherit;" parent="18" vertex="1">
                    <mxGeometry y="70" width="210" height="8" as="geometry"/>
                </mxCell>
                <mxCell id="21" value="+ calcula_idade(): int&#10;+ adotar(): Adocao" style="text;strokeColor=none;fillColor=none;align=left;verticalAlign=top;spacingLeft=4;spacingRight=4;overflow=hidden;rotatable=0;points=[[0,0.5],[1,0.5]];portConstraint=eastwest;" parent="18" vertex="1">
                    <mxGeometry y="78" width="210" height="42" as="geometry"/>
                </mxCell>
                <mxCell id="23" value="Extends" style="endArrow=block;endSize=16;endFill=0;html=1;exitX=0.5;exitY=0;exitDx=0;exitDy=0;entryX=0.494;entryY=1.04;entryDx=0;entryDy=0;entryPerimeter=0;" parent="WIyWlLk6GJQsqaUBKTNV-1" source="18" target="ZOqMEY8nHoL99eGyLQIH-7" edge="1">
                    <mxGeometry width="160" relative="1" as="geometry">
                        <mxPoint x="306" y="448.98" as="sourcePoint"/>
                        <mxPoint x="286" y="416" as="targetPoint"/>
                    </mxGeometry>
                </mxCell>
                <mxCell id="24" value="Vacinacao" style="swimlane;fontStyle=1;align=center;verticalAlign=top;childLayout=stackLayout;horizontal=1;startSize=26;horizontalStack=0;resizeParent=1;resizeParentMax=0;resizeLast=0;collapsible=1;marginBottom=0;" parent="WIyWlLk6GJQsqaUBKTNV-1" vertex="1">
                    <mxGeometry x="1040" y="150" width="160" height="114" as="geometry"/>
                </mxCell>
                <mxCell id="25" value="- data: Date&#10;- animal: Animal&#10;- vacina: str" style="text;strokeColor=none;fillColor=none;align=left;verticalAlign=top;spacingLeft=4;spacingRight=4;overflow=hidden;rotatable=0;points=[[0,0.5],[1,0.5]];portConstraint=eastwest;" parent="24" vertex="1">
                    <mxGeometry y="26" width="160" height="54" as="geometry"/>
                </mxCell>
                <mxCell id="26" value="" style="line;strokeWidth=1;fillColor=none;align=left;verticalAlign=middle;spacingTop=-1;spacingLeft=3;spacingRight=3;rotatable=0;labelPosition=right;points=[];portConstraint=eastwest;strokeColor=inherit;" parent="24" vertex="1">
                    <mxGeometry y="80" width="160" height="8" as="geometry"/>
                </mxCell>
                <mxCell id="27" value="+ method(type): type" style="text;strokeColor=none;fillColor=none;align=left;verticalAlign=top;spacingLeft=4;spacingRight=4;overflow=hidden;rotatable=0;points=[[0,0.5],[1,0.5]];portConstraint=eastwest;" parent="24" vertex="1">
                    <mxGeometry y="88" width="160" height="26" as="geometry"/>
                </mxCell>
                <mxCell id="28" value="" style="endArrow=open;endFill=1;endSize=12;html=1;entryX=0;entryY=0.5;entryDx=0;entryDy=0;exitX=1.006;exitY=0.704;exitDx=0;exitDy=0;exitPerimeter=0;" parent="WIyWlLk6GJQsqaUBKTNV-1" target="25" edge="1" source="ZOqMEY8nHoL99eGyLQIH-17">
                    <mxGeometry width="160" relative="1" as="geometry">
                        <mxPoint x="940" y="274" as="sourcePoint"/>
                        <mxPoint x="1100" y="274" as="targetPoint"/>
                    </mxGeometry>
                </mxCell>
                <mxCell id="29" value="- vacinacoes" style="text;strokeColor=none;fillColor=none;align=left;verticalAlign=top;spacingLeft=4;spacingRight=4;overflow=hidden;rotatable=0;points=[[0,0.5],[1,0.5]];portConstraint=eastwest;" parent="WIyWlLk6GJQsqaUBKTNV-1" vertex="1">
                    <mxGeometry x="960" y="172" width="100" height="26" as="geometry"/>
                </mxCell>
                <mxCell id="30" value="Habitacao" style="swimlane;fontStyle=1;align=center;verticalAlign=top;childLayout=stackLayout;horizontal=1;startSize=26;horizontalStack=0;resizeParent=1;resizeParentMax=0;resizeLast=0;collapsible=1;marginBottom=0;" parent="WIyWlLk6GJQsqaUBKTNV-1" vertex="1">
                    <mxGeometry x="90" y="730" width="160" height="94" as="geometry"/>
                </mxCell>
                <mxCell id="31" value="- tipo: str&#10;- tamanho: str" style="text;strokeColor=none;fillColor=none;align=left;verticalAlign=top;spacingLeft=4;spacingRight=4;overflow=hidden;rotatable=0;points=[[0,0.5],[1,0.5]];portConstraint=eastwest;" parent="30" vertex="1">
                    <mxGeometry y="26" width="160" height="34" as="geometry"/>
                </mxCell>
                <mxCell id="32" value="" style="line;strokeWidth=1;fillColor=none;align=left;verticalAlign=middle;spacingTop=-1;spacingLeft=3;spacingRight=3;rotatable=0;labelPosition=right;points=[];portConstraint=eastwest;strokeColor=inherit;" parent="30" vertex="1">
                    <mxGeometry y="60" width="160" height="8" as="geometry"/>
                </mxCell>
                <mxCell id="33" value="+ method(type): type" style="text;strokeColor=none;fillColor=none;align=left;verticalAlign=top;spacingLeft=4;spacingRight=4;overflow=hidden;rotatable=0;points=[[0,0.5],[1,0.5]];portConstraint=eastwest;" parent="30" vertex="1">
                    <mxGeometry y="68" width="160" height="26" as="geometry"/>
                </mxCell>
                <mxCell id="34" value="Doador" style="swimlane;fontStyle=1;align=center;verticalAlign=top;childLayout=stackLayout;horizontal=1;startSize=26;horizontalStack=0;resizeParent=1;resizeParentMax=0;resizeLast=0;collapsible=1;marginBottom=0;" parent="WIyWlLk6GJQsqaUBKTNV-1" vertex="1">
                    <mxGeometry x="75" y="36" width="160" height="94" as="geometry"/>
                </mxCell>
                <mxCell id="35" value="- tipo: str&#10;- tamanho: str" style="text;strokeColor=none;fillColor=none;align=left;verticalAlign=top;spacingLeft=4;spacingRight=4;overflow=hidden;rotatable=0;points=[[0,0.5],[1,0.5]];portConstraint=eastwest;" parent="34" vertex="1">
                    <mxGeometry y="26" width="160" height="34" as="geometry"/>
                </mxCell>
                <mxCell id="36" value="" style="line;strokeWidth=1;fillColor=none;align=left;verticalAlign=middle;spacingTop=-1;spacingLeft=3;spacingRight=3;rotatable=0;labelPosition=right;points=[];portConstraint=eastwest;strokeColor=inherit;" parent="34" vertex="1">
                    <mxGeometry y="60" width="160" height="8" as="geometry"/>
                </mxCell>
                <mxCell id="37" value="+ method(type): type" style="text;strokeColor=none;fillColor=none;align=left;verticalAlign=top;spacingLeft=4;spacingRight=4;overflow=hidden;rotatable=0;points=[[0,0.5],[1,0.5]];portConstraint=eastwest;" parent="34" vertex="1">
                    <mxGeometry y="68" width="160" height="26" as="geometry"/>
                </mxCell>
                <mxCell id="40" value="" style="endArrow=open;endFill=1;endSize=12;html=1;exitX=1.019;exitY=0.837;exitDx=0;exitDy=0;exitPerimeter=0;entryX=0.006;entryY=1.037;entryDx=0;entryDy=0;entryPerimeter=0;" parent="WIyWlLk6GJQsqaUBKTNV-1" source="ZOqMEY8nHoL99eGyLQIH-1" target="ZOqMEY8nHoL99eGyLQIH-17" edge="1">
                    <mxGeometry width="160" relative="1" as="geometry">
                        <mxPoint x="880" y="220" as="sourcePoint"/>
                        <mxPoint x="1040" y="220" as="targetPoint"/>
                        <Array as="points">
                            <mxPoint x="600" y="384"/>
                            <mxPoint x="600" y="220"/>
                        </Array>
                    </mxGeometry>
                </mxCell>
                <mxCell id="41" value="- animais" style="text;strokeColor=none;fillColor=none;align=left;verticalAlign=top;spacingLeft=4;spacingRight=4;overflow=hidden;rotatable=0;points=[[0,0.5],[1,0.5]];portConstraint=eastwest;" parent="WIyWlLk6GJQsqaUBKTNV-1" vertex="1">
                    <mxGeometry x="660" y="194" width="60" height="26" as="geometry"/>
                </mxCell>
                <mxCell id="43" value="0..*" style="text;align=center;fontStyle=1;verticalAlign=middle;spacingLeft=3;spacingRight=3;strokeColor=none;rotatable=0;points=[[0,0.5],[1,0.5]];portConstraint=eastwest;" parent="WIyWlLk6GJQsqaUBKTNV-1" vertex="1">
                    <mxGeometry x="650" y="220" width="80" height="26" as="geometry"/>
                </mxCell>
                <mxCell id="45" value="Extends" style="endArrow=block;endSize=16;endFill=0;html=1;exitX=0.481;exitY=1.038;exitDx=0;exitDy=0;exitPerimeter=0;entryX=0.5;entryY=0;entryDx=0;entryDy=0;" parent="WIyWlLk6GJQsqaUBKTNV-1" source="37" target="ZOqMEY8nHoL99eGyLQIH-4" edge="1">
                    <mxGeometry width="160" relative="1" as="geometry">
                        <mxPoint x="180" y="140" as="sourcePoint"/>
                        <mxPoint x="340" y="140" as="targetPoint"/>
                    </mxGeometry>
                </mxCell>
                <mxCell id="49" value="" style="endArrow=open;endFill=1;endSize=12;html=1;exitX=0.938;exitY=1.048;exitDx=0;exitDy=0;exitPerimeter=0;entryX=0.994;entryY=0.685;entryDx=0;entryDy=0;entryPerimeter=0;" parent="WIyWlLk6GJQsqaUBKTNV-1" source="ZOqMEY8nHoL99eGyLQIH-19" target="ZOqMEY8nHoL99eGyLQIH-13" edge="1">
                    <mxGeometry width="160" relative="1" as="geometry">
                        <mxPoint x="880" y="300" as="sourcePoint"/>
                        <mxPoint x="1040" y="300" as="targetPoint"/>
                        <Array as="points">
                            <mxPoint x="880" y="683"/>
                        </Array>
                    </mxGeometry>
                </mxCell>
                <mxCell id="50" value="" style="endArrow=open;endFill=1;endSize=12;html=1;exitX=1.024;exitY=0.841;exitDx=0;exitDy=0;exitPerimeter=0;entryX=-0.024;entryY=0.963;entryDx=0;entryDy=0;entryPerimeter=0;" parent="WIyWlLk6GJQsqaUBKTNV-1" source="19" target="ZOqMEY8nHoL99eGyLQIH-13" edge="1">
                    <mxGeometry width="160" relative="1" as="geometry">
                        <mxPoint x="340" y="720" as="sourcePoint"/>
                        <mxPoint x="330" y="790" as="targetPoint"/>
                        <Array as="points">
                            <mxPoint x="340" y="539"/>
                            <mxPoint x="340" y="700"/>
                        </Array>
                    </mxGeometry>
                </mxCell>
                <mxCell id="52" value="" style="endArrow=open;endFill=1;endSize=12;html=1;entryX=1.019;entryY=0.625;entryDx=0;entryDy=0;entryPerimeter=0;exitX=0;exitY=0.882;exitDx=0;exitDy=0;exitPerimeter=0;" parent="WIyWlLk6GJQsqaUBKTNV-1" source="ZOqMEY8nHoL99eGyLQIH-1" target="ZOqMEY8nHoL99eGyLQIH-5" edge="1">
                    <mxGeometry width="160" relative="1" as="geometry">
                        <mxPoint x="300" y="320" as="sourcePoint"/>
                        <mxPoint x="510" y="350" as="targetPoint"/>
                        <Array as="points">
                            <mxPoint x="310" y="386"/>
                            <mxPoint x="310" y="270"/>
                        </Array>
                    </mxGeometry>
                </mxCell>
                <mxCell id="53" value="- pessoas" style="text;strokeColor=none;fillColor=none;align=left;verticalAlign=top;spacingLeft=4;spacingRight=4;overflow=hidden;rotatable=0;points=[[0,0.5],[1,0.5]];portConstraint=eastwest;" parent="WIyWlLk6GJQsqaUBKTNV-1" vertex="1">
                    <mxGeometry x="235" y="242" width="75" height="26" as="geometry"/>
                </mxCell>
                <mxCell id="54" value="0..*" style="text;align=center;fontStyle=1;verticalAlign=middle;spacingLeft=3;spacingRight=3;strokeColor=none;rotatable=0;points=[[0,0.5],[1,0.5]];portConstraint=eastwest;" parent="WIyWlLk6GJQsqaUBKTNV-1" vertex="1">
                    <mxGeometry x="225" y="280" width="80" height="26" as="geometry"/>
                </mxCell>
                <mxCell id="55" value="" style="endArrow=open;endFill=1;endSize=12;html=1;entryX=0.5;entryY=1.057;entryDx=0;entryDy=0;entryPerimeter=0;exitX=0.5;exitY=0;exitDx=0;exitDy=0;exitPerimeter=0;" parent="WIyWlLk6GJQsqaUBKTNV-1" source="ZOqMEY8nHoL99eGyLQIH-0" target="ZOqMEY8nHoL99eGyLQIH-11" edge="1">
                    <mxGeometry width="160" relative="1" as="geometry">
                        <mxPoint x="430" y="270" as="sourcePoint"/>
                        <mxPoint x="510" y="350" as="targetPoint"/>
                    </mxGeometry>
                </mxCell>
                <mxCell id="56" value="" style="endArrow=open;endFill=1;endSize=12;html=1;entryX=0.5;entryY=0;entryDx=0;entryDy=0;exitX=0.52;exitY=1.016;exitDx=0;exitDy=0;exitPerimeter=0;" parent="WIyWlLk6GJQsqaUBKTNV-1" source="ZOqMEY8nHoL99eGyLQIH-3" target="ZOqMEY8nHoL99eGyLQIH-12" edge="1">
                    <mxGeometry width="160" relative="1" as="geometry">
                        <mxPoint x="420" y="530.01" as="sourcePoint"/>
                        <mxPoint x="460" y="460" as="targetPoint"/>
                    </mxGeometry>
                </mxCell>
                <mxCell id="57" value="- adocoes" style="text;strokeColor=none;fillColor=none;align=left;verticalAlign=top;spacingLeft=4;spacingRight=4;overflow=hidden;rotatable=0;points=[[0,0.5],[1,0.5]];portConstraint=eastwest;" parent="WIyWlLk6GJQsqaUBKTNV-1" vertex="1">
                    <mxGeometry x="475" y="594" width="75" height="26" as="geometry"/>
                </mxCell>
                <mxCell id="58" value="0..*" style="text;align=center;fontStyle=1;verticalAlign=middle;spacingLeft=3;spacingRight=3;strokeColor=none;rotatable=0;points=[[0,0.5],[1,0.5]];portConstraint=eastwest;" parent="WIyWlLk6GJQsqaUBKTNV-1" vertex="1">
                    <mxGeometry x="390" y="594" width="80" height="26" as="geometry"/>
                </mxCell>
                <mxCell id="59" value="0..*" style="text;align=center;fontStyle=1;verticalAlign=middle;spacingLeft=3;spacingRight=3;strokeColor=none;rotatable=0;points=[[0,0.5],[1,0.5]];portConstraint=eastwest;" parent="WIyWlLk6GJQsqaUBKTNV-1" vertex="1">
                    <mxGeometry x="467.5" y="206" width="80" height="26" as="geometry"/>
                </mxCell>
                <mxCell id="60" value="- doacoes" style="text;strokeColor=none;fillColor=none;align=left;verticalAlign=top;spacingLeft=4;spacingRight=4;overflow=hidden;rotatable=0;points=[[0,0.5],[1,0.5]];portConstraint=eastwest;" parent="WIyWlLk6GJQsqaUBKTNV-1" vertex="1">
                    <mxGeometry x="392.5" y="206" width="75" height="26" as="geometry"/>
                </mxCell>
                <mxCell id="61" value="0..*" style="text;align=center;fontStyle=1;verticalAlign=middle;spacingLeft=3;spacingRight=3;strokeColor=none;rotatable=0;points=[[0,0.5],[1,0.5]];portConstraint=eastwest;" vertex="1" parent="WIyWlLk6GJQsqaUBKTNV-1">
                    <mxGeometry x="970" y="206" width="80" height="26" as="geometry"/>
                </mxCell>
                <mxCell id="64" value="1" style="endArrow=open;html=1;endSize=12;startArrow=diamondThin;startSize=14;startFill=0;edgeStyle=orthogonalEdgeStyle;align=left;verticalAlign=bottom;exitX=0.431;exitY=-0.032;exitDx=0;exitDy=0;exitPerimeter=0;entryX=0.462;entryY=1.048;entryDx=0;entryDy=0;entryPerimeter=0;" edge="1" parent="WIyWlLk6GJQsqaUBKTNV-1" source="30" target="21">
                    <mxGeometry x="-1" y="3" relative="1" as="geometry">
                        <mxPoint x="110" y="660" as="sourcePoint"/>
                        <mxPoint x="270" y="660" as="targetPoint"/>
                        <Array as="points">
                            <mxPoint x="147" y="727"/>
                        </Array>
                    </mxGeometry>
                </mxCell>
            </root>
        </mxGraphModel>
    </diagram>
</mxfile>